<svg xmlns="http://www.w3.org/2000/svg" viewBox="0 0 79.66 67.23"><defs><style>.cls-1{fill:none;stroke:#fff;stroke-miterlimit:10;stroke-width:2px;}.cls-2{fill:#fff;}</style></defs><g id="pieds"><path class="cls-1" d="M15,7.91V4.1a1,1,0,0,0-1-1H11.55a1,1,0,0,0-1,1V7.93Z"/><path class="cls-1" d="M12.54,32.9c-.63,0-1.26.11-1.89.11h-.1V63.1a1,1,0,0,0,1,1H14a1,1,0,0,0,1-1V32.93C14.17,32.94,13.36,32.89,12.54,32.9Z"/><path class="cls-1" d="M68.11,7.89V4.13a1,1,0,0,0-1-1H64.68a1,1,0,0,0-1,1V7.82C65.16,7.83,66.63,7.88,68.11,7.89Z"/><path class="cls-1" d="M64.08,33h0l-.39,0V63.06a1,1,0,0,0,1,1h2.43a1,1,0,0,0,1-1v-30A12.67,12.67,0,0,1,64.08,33Z"/></g><g id="panneau"><rect class="cls-1" x="2.21" y="7.91" width="74.55" height="25.02" rx="7"/></g><g id="Calque_4" data-name="Calque 4"><line class="cls-1" x1="2.21" y1="17.96" x2="12.17" y2="8"/><line class="cls-1" x1="2.37" y1="27.41" x2="21.83" y2="7.95"/><path class="cls-1" d="M27.92,13.44l5.27-5.27"/><path class="cls-1" d="M8.43,32.94l13-13"/><path class="cls-1" d="M38.48,13.78,44.21,8"/><path class="cls-1" d="M19.32,32.94l5.79-5.79"/><path class="cls-1" d="M51.29,13.41,56.9,7.8"/><path class="cls-1" d="M31.77,32.94l5.41-5.42"/><path class="cls-1" d="M58,19.3,69.32,8"/><path class="cls-1" d="M44.34,32.94,50,27.25"/><line class="cls-1" x1="56.83" y1="32.94" x2="76.63" y2="13.14"/><line class="cls-1" x1="66.73" y1="32.94" x2="76.55" y2="23.11"/></g><g id="text"><path class="cls-2" d="M28.79,20.24l5.77-2.67v1.27l-4.37,1.91v0l4.37,1.9V24l-5.77-2.68Z"/><path class="cls-2" d="M37.87,24.43l2.56-8.7h1.21l-2.57,8.7Z"/><path class="cls-2" d="M50.53,21.31,44.76,24V22.68l4.46-1.91v0l-4.46-1.91V17.57l5.77,2.63Z"/></g></svg>