<?xml version="1.0" encoding="utf-8"?>
<!-- Generator: Adobe Illustrator 24.3.0, SVG Export Plug-In . SVG Version: 6.00 Build 0)  -->
<svg version="1.1" id="Calque_1" xmlns="http://www.w3.org/2000/svg" xmlns:xlink="http://www.w3.org/1999/xlink" x="0px" y="0px"
	 viewBox="0 0 24 24" style="enable-background:new 0 0 24 24;" xml:space="preserve">
<style type="text/css">
	.st0{fill:#52AE7E;}
</style>
<path class="st0" d="M19,5h-6V2h-2v3H5C3.3,5,2,6.3,2,8v10c0,1.1,0.9,2,2,2h16c1.1,0,2-0.9,2-2V8C22,6.3,20.7,5,19,5z M5,7h14
	c0.6,0,1,0.4,1,1v3.1c-0.9,0.2-1.5,0.7-1.9,1.1c-0.5,0.4-0.8,0.7-1.6,0.7c-0.7,0-1.1-0.3-1.6-0.7C14.3,11.7,13.5,11,12,11
	s-2.3,0.7-2.9,1.3C8.6,12.7,8.2,13,7.5,13s-1.1-0.3-1.6-0.7c-0.4-0.4-1-0.9-1.9-1.1V8C4,7.4,4.4,7,5,7z M4,18v-4.7
	c0.2,0.1,0.4,0.3,0.6,0.5C5.2,14.3,6,15,7.5,15s2.3-0.7,2.9-1.3c0.5-0.4,0.8-0.7,1.6-0.7s1.1,0.3,1.6,0.7c0.6,0.5,1.4,1.3,2.9,1.3
	s2.3-0.7,2.9-1.3c0.2-0.2,0.4-0.3,0.6-0.5v4.7H4V18z"/>
</svg>
