<?xml version="1.0" encoding="utf-8"?>
<!-- Generator: Adobe Illustrator 24.3.0, SVG Export Plug-In . SVG Version: 6.00 Build 0)  -->
<svg version="1.1" id="Calque_1" xmlns="http://www.w3.org/2000/svg" xmlns:xlink="http://www.w3.org/1999/xlink" x="0px" y="0px"
	 viewBox="0 0 24 24" style="enable-background:new 0 0 24 24;" xml:space="preserve">
<style type="text/css">
	.st0{fill:#FFFFFF;}
</style>
<path class="st0" d="M12,2C6.5,2,2,6.5,2,12s4.5,10,10,10s10-4.5,10-10S17.5,2,12,2z M19.9,11h-2.8c-0.1-2.2-0.7-4.3-1.8-6.2
	C17.9,5.9,19.6,8.3,19.9,11z M12.5,4c1,1.4,2.4,3.8,2.6,7H9c0.1-2.6,1-5,2.5-7c0.2,0,0.3,0,0.5,0C12.2,4,12.4,4,12.5,4z M8.7,4.7
	c-1,1.9-1.6,4-1.7,6.3h-3C4.4,8.3,6.2,5.9,8.7,4.7z M4.1,13h3c0.1,2.4,0.7,4.5,1.6,6.2C6.1,18.1,4.4,15.7,4.1,13z M11.4,20
	C10,18.3,9.2,15.9,9,13h6.1c-0.2,2.8-1.1,5.2-2.6,7c-0.2,0-0.4,0-0.6,0C11.8,20,11.6,20,11.4,20z M15.5,19.2c1-1.8,1.5-3.9,1.7-6.2
	h2.8C19.6,15.7,17.9,18,15.5,19.2z"/>
</svg>
