<?xml version="1.0" encoding="utf-8"?>
<!-- Generator: Adobe Illustrator 24.3.0, SVG Export Plug-In . SVG Version: 6.00 Build 0)  -->
<svg version="1.1" id="Calque_1" xmlns="http://www.w3.org/2000/svg" xmlns:xlink="http://www.w3.org/1999/xlink" x="0px" y="0px"
	 viewBox="0 0 24 24" style="enable-background:new 0 0 24 24;" xml:space="preserve">
<style type="text/css">
	.st0{fill:#FFFFFF;}
</style>
<path class="st0" d="M12,17l1-2V9.9c1.7-0.4,3-2,3-3.9c0-2.2-1.8-4-4-4S8,3.8,8,6c0,1.9,1.3,3.4,3,3.9V15L12,17z M10,6
	c0-1.1,0.9-2,2-2s2,0.9,2,2s-0.9,2-2,2S10,7.1,10,6z"/>
<path class="st0" d="M16.3,10.6l-0.5,1.9c2.6,0.7,4.3,2.1,4.3,3.5c0,1.9-3.3,4-8,4s-8-2.1-8-4c0-1.4,1.7-2.8,4.3-3.5l-0.5-1.9
	C4.2,11.5,2,13.6,2,16c0,3.4,4.4,6,10,6s10-2.6,10-6C22,13.6,19.8,11.5,16.3,10.6z"/>
</svg>
